<svg width="49" height="38" viewBox="0 0 49 38" fill="none" xmlns="http://www.w3.org/2000/svg">
<path fill-rule="evenodd" clip-rule="evenodd" d="M16.8438 13.68C18.0621 13.68 19.2305 13.1996 20.092 12.3444C20.9535 11.4892 21.4375 10.3294 21.4375 9.12C21.4375 7.91061 20.9535 6.75076 20.092 5.89559C19.2305 5.04043 18.0621 4.56 16.8438 4.56C15.6254 4.56 14.457 5.04043 13.5955 5.89559C12.734 6.75076 12.25 7.91061 12.25 9.12C12.25 10.3294 12.734 11.4892 13.5955 12.3444C14.457 13.1996 15.6254 13.68 16.8438 13.68ZM16.8438 18.24C19.2804 18.24 21.6173 17.2791 23.3403 15.5688C25.0633 13.8585 26.0312 11.5388 26.0312 9.12C26.0312 6.70123 25.0633 4.38152 23.3403 2.67119C21.6173 0.960855 19.2804 0 16.8438 0C14.4071 0 12.0702 0.960855 10.3472 2.67119C8.62422 4.38152 7.65625 6.70123 7.65625 9.12C7.65625 11.5388 8.62422 13.8585 10.3472 15.5688C12.0702 17.2791 14.4071 18.24 16.8438 18.24ZM7.56744 27.0134C5.18787 28.655 4.59375 30.245 4.59375 30.9837C4.59375 32.3395 5.70238 33.44 7.06825 33.44H26.6193C27.275 33.4384 27.9035 33.1791 28.3672 32.7188C28.8309 32.2585 29.0921 31.6346 29.0938 30.9837C29.0938 30.2419 28.4996 28.652 26.1201 27.0134C23.863 25.46 20.5769 24.32 16.8438 24.32C13.1106 24.32 9.8245 25.46 7.56744 27.0134ZM0 30.9837C0 25.3718 7.57969 19.76 16.8438 19.76C20.4575 19.76 23.8201 20.6142 26.5733 21.9914C29.2098 20.5119 32.1902 19.7427 35.2188 19.76C42.7984 19.76 49 24.4355 49 29.1141C49 30.6645 48.3795 32.1514 47.2751 33.2478C46.1707 34.3441 44.6727 34.96 43.1108 34.96H32.4441C31.1701 36.7962 29.0356 38 26.6193 38H7.06825C5.19413 37.9984 3.39724 37.2587 2.07203 35.9432C0.746831 34.6277 0.00162191 32.844 0 30.9837ZM33.6599 30.4H43.1108C43.8274 30.4 44.4062 29.8224 44.4062 29.1141C44.4062 28.801 44.1123 27.6792 42.2993 26.4085C40.6026 25.2138 38.0883 24.32 35.2188 24.32C33.6354 24.32 32.1593 24.5936 30.87 25.0374C32.4809 26.6608 33.4854 28.5213 33.6599 30.4ZM38.2812 10.64C38.2812 11.4463 37.9586 12.2195 37.3843 12.7896C36.8099 13.3597 36.031 13.68 35.2188 13.68C34.4065 13.68 33.6276 13.3597 33.0532 12.7896C32.4789 12.2195 32.1562 11.4463 32.1562 10.64C32.1562 9.83374 32.4789 9.06051 33.0532 8.4904C33.6276 7.92029 34.4065 7.6 35.2188 7.6C36.031 7.6 36.8099 7.92029 37.3843 8.4904C37.9586 9.06051 38.2812 9.83374 38.2812 10.64ZM42.875 10.64C42.875 12.6556 42.0684 14.5887 40.6325 16.014C39.1967 17.4393 37.2493 18.24 35.2188 18.24C33.1882 18.24 31.2408 17.4393 29.805 16.014C28.3691 14.5887 27.5625 12.6556 27.5625 10.64C27.5625 8.62435 28.3691 6.69127 29.805 5.26599C31.2408 3.84071 33.1882 3.04 35.2188 3.04C37.2493 3.04 39.1967 3.84071 40.6325 5.26599C42.0684 6.69127 42.875 8.62435 42.875 10.64Z" fill="#C7DBDC"/>
</svg>
